<svg xmlns="http://www.w3.org/2000/svg" width="800" height="600" viewBox="0 0 800 600">
  <defs>
    <linearGradient id="bg" x1="0" y1="0" x2="1" y2="1">
      <stop offset="0%" stop-color="#f26d85"/>
      <stop offset="100%" stop-color="#d94b65"/>
    </linearGradient>
    <filter id="soft" x="-20%" y="-20%" width="140%" height="140%">
      <feGaussianBlur in="SourceGraphic" stdDeviation="1.2" />
    </filter>
  </defs>
  <rect x="0" y="0" width="800" height="600" rx="24" fill="url(#bg)"/>
  <!-- Smooth body lines -->
  <g fill="none" stroke="#fff" stroke-width="14" stroke-linecap="round" opacity="0.95">
    <path d="M260 240 C 330 210 390 230 450 260 C 520 295 580 300 610 280" filter="url(#soft)"/>
    <path d="M240 310 C 320 280 390 310 460 340 C 530 370 600 365 630 340" filter="url(#soft)"/>
    <path d="M220 380 C 320 350 410 390 480 420 C 540 445 610 435 640 410" filter="url(#soft)"/>
  </g>
  <!-- Accent circles -->
  <circle cx="620" cy="285" r="8" fill="#fff"/>
  <circle cx="635" cy="345" r="6" fill="#fff"/>
</svg>