<svg xmlns="http://www.w3.org/2000/svg" width="800" height="600" viewBox="0 0 800 600">
  <defs>
    <linearGradient id="bg" x1="0" y1="0" x2="1" y2="1">
      <stop offset="0%" stop-color="#3bbdb3"/>
      <stop offset="100%" stop-color="#2e8b8d"/>
    </linearGradient>
    <filter id="soft" x="-20%" y="-20%" width="140%" height="140%">
      <feGaussianBlur in="SourceGraphic" stdDeviation="1.2" />
    </filter>
  </defs>
  <rect x="0" y="0" width="800" height="600" rx="24" fill="url(#bg)"/>
  <!-- Droplet -->
  <path d="M400 200 C 460 270 460 330 400 370 C 340 330 340 270 400 200 Z" fill="#fff" filter="url(#soft)"/>
  <!-- Up arrows (circulation) -->
  <g fill="none" stroke="#fff" stroke-width="12" stroke-linecap="round">
    <path d="M320 420 L320 360"/>
    <path d="M320 360 L305 375"/>
    <path d="M320 360 L335 375"/>

    <path d="M400 450 L400 380"/>
    <path d="M400 380 L385 395"/>
    <path d="M400 380 L415 395"/>

    <path d="M480 420 L480 360"/>
    <path d="M480 360 L465 375"/>
    <path d="M480 360 L495 375"/>
  </g>
</svg>