<svg xmlns="http://www.w3.org/2000/svg" width="800" height="600" viewBox="0 0 800 600">
  <defs>
    <linearGradient id="bg" x1="0" y1="0" x2="1" y2="1">
      <stop offset="0%" stop-color="#3bbdb3"/>
      <stop offset="100%" stop-color="#2e8b8d"/>
    </linearGradient>
    <filter id="soft" x="-20%" y="-20%" width="140%" height="140%">
      <feGaussianBlur in="SourceGraphic" stdDeviation="1.2" />
    </filter>
  </defs>
  <rect x="0" y="0" width="800" height="600" rx="24" fill="url(#bg)"/>
  <!-- Lotus petals -->
  <g fill="#fff" opacity="0.95">
    <path d="M400 310 C 430 260 470 240 500 300 C 470 320 430 340 400 310 Z" filter="url(#soft)"/>
    <path d="M400 310 C 370 260 330 240 300 300 C 330 320 370 340 400 310 Z" filter="url(#soft)"/>
    <path d="M400 310 C 420 270 420 240 400 225 C 380 240 380 270 400 310 Z" filter="url(#soft)"/>
    <!-- Base leaf -->
    <ellipse cx="400" cy="360" rx="140" ry="40"/>
  </g>
</svg>